<svg xmlns="http://www.w3.org/2000/svg" width="233.83" height="27.88" viewBox="0 0 233.83 27.88">
  <defs>
    <style>
      .a {
        fill: #dcdcdc;
      }

      .b, .c {
        fill: #ee5f64;
      }

      .b {
        stroke: #151515;
      }

      .b, .d {
        stroke-miterlimit: 10;
      }

      .d {
        fill: none;
        stroke: #ee5f64;
      }
    </style>
  </defs>
  <title>logotype</title>
  <g>
    <g>
      <path class="a" d="M26.8,27.88h-19L17.29,8.82ZM12.48,25H22.1l-4.81-9.64Z"/>
      <path class="a" d="M39.86,24l-7.52-7.77v11.7H29.46V8.82l10.4,10.79ZM43.65,8.82V27.88l-2.88-3V8.82Z"/>
      <path class="a" d="M61.33,19.4c0,7.23-3.85,8.48-7.56,8.48H46.25V8.82h7.52C57.59,8.82,61.33,12.2,61.33,19.4Zm-3.12,0c0-3.2-.88-4.94-1.64-5.88A3.53,3.53,0,0,0,53.77,12h-4.4V24.65h4.4a4.78,4.78,0,0,0,3.14-.8C58,22.94,58.21,20.91,58.21,19.35Z"/>
      <path class="a" d="M74.41,22.42l4,5.46h-4L70.85,23H68.33l-.65-3.2h3.9a3.88,3.88,0,0,0,0-7.75H67.13V27.88h-3.2V8.82h7.65a7.1,7.1,0,0,1,2.83,13.6Z"/>
      <path class="a" d="M95.57,12H84.5v7.07h7.38l-.62,3.23H84.5v2.31H95.57v3.23H81.27V8.82h14.3Z"/>
      <path class="a" d="M114,23.74l-1.56,4.14-3.57-9.52-3.56,9.52L98.12,8.82h3.09l4.06,10.76,2-5.38-2-5.38h3.1l.46,1.22,1.56,4.16,2,5.38,0,0Zm-1-5.56,3.51-9.36h3.1l-5.07,13.54Z"/>
      <path class="a" d="M141,18.36a9.49,9.49,0,1,1-2.34-6.29l-2.34,2.34a6.26,6.26,0,1,0,.73,6.81h-4.42l-.5-2.86H141Z"/>
      <path class="a" d="M162.65,18.36a9.53,9.53,0,1,1-9.51-9.54A9.52,9.52,0,0,1,162.65,18.36Zm-9.51-6.27a6.27,6.27,0,1,0,6.26,6.27A6.27,6.27,0,0,0,153.14,12.09Zm0,4.74a1.52,1.52,0,1,0,1.53,1.53A1.53,1.53,0,0,0,153.14,16.83Z"/>
      <path class="a" d="M179.81,27.88H165.25V8.82h3.23V24.65h10.68Z"/>
      <path class="a" d="M184.15,26a6,6,0,0,1-1.71-4.31V8.82h3.2V21.64c0,2,1.43,3.06,4.16,3.06S194,23.59,194,21.58V8.82h3.2V21.58c0,2.92-2,6.3-7.41,6.3A7.75,7.75,0,0,1,184.15,26Z"/>
      <path class="a" d="M215.33,22.05a5.81,5.81,0,0,1-5.8,5.83h-9.75V8.82h8.42a4.4,4.4,0,0,1,2.94,7.67A5.81,5.81,0,0,1,215.33,22.05Zm-3.62-.23a2.92,2.92,0,0,0-2.93-2.91H203v5.82h5.83A2.92,2.92,0,0,0,211.71,21.82Zm-8.73-7h4.5a1.55,1.55,0,0,0,0-3.09H203Z"/>
    </g>
    <g>
      <path class="b" d="M217.88,19.88a49.39,49.39,0,0,0,5.57,3.8h0A30.27,30.27,0,0,0,228.7,26s-3.49,1.72-5,.57c-.1-.08,1.09-.54,1-.64s-.7.1-.88,0c-.59-.44-1.46-1-2.12-1.56-.92-.75-1.84-1.55-2.58-2.23a8.26,8.26,0,0,1-1.43-1.7Z"/>
      <path class="b" d="M217.75,19.82a53.09,53.09,0,0,0,7.19,2.12h0a34.42,34.42,0,0,0,6.32.62s-3.1,3-5.08,2.33c-.13,0,1-.95.84-1s-.71.34-.95.26c-.78-.27-1.89-.59-2.77-.93-1.23-.48-2.49-1-3.49-1.49a9.39,9.39,0,0,1-2.1-1.32Z"/>
      <path class="b" d="M217.59,19.81a59.24,59.24,0,0,0,8.32-.23h0A37.38,37.38,0,0,0,232.81,18s-2.22,4.33-4.56,4.26c-.16,0,.7-1.35.53-1.38s-.62.61-.91.61c-.91,0-2.2,0-3.25,0-1.46-.09-3-.23-4.2-.39a10.1,10.1,0,0,1-2.67-.68Z"/>
      <path class="b" d="M217.41,19.85a64.46,64.46,0,0,0,8.72-3.14h0a40.79,40.79,0,0,0,6.75-4s-.86,5.39-3.36,6.13c-.16.05.28-1.68.09-1.66s-.45.87-.75,1c-1,.31-2.32.8-3.44,1.1-1.59.41-3.22.79-4.57,1.05a11.39,11.39,0,0,1-3.06.2Z"/>
      <path class="b" d="M217.23,20a72.19,72.19,0,0,0,8.14-6.38h0a46.36,46.36,0,0,0,5.75-6.65s.93,6.07-1.45,7.72c-.16.11-.29-1.89-.47-1.8s-.18,1.08-.47,1.29c-.92.66-2.17,1.66-3.26,2.37-1.53,1-3.13,2-4.47,2.7a12.69,12.69,0,0,1-3.16,1.28Z"/>
      <path class="b" d="M217.09,20.12a80.84,80.84,0,0,0,6.41-9.64v0a52.6,52.6,0,0,0,3.79-9.1s3.07,6.16,1.13,8.75c-.13.18-1-1.92-1.13-1.76s.19,1.22-.05,1.55c-.74,1-1.72,2.52-2.63,3.65-1.28,1.6-2.64,3.19-3.79,4.45a13.71,13.71,0,0,1-2.91,2.46Z"/>
    </g>
    <rect class="c" y="24.36" width="3" height="3"/>
    <line class="d" x1="7.5" y1="18.86" x2="216.5" y2="17.86"/>
  </g>
</svg>
