<svg xmlns="http://www.w3.org/2000/svg" xmlns:xlink="http://www.w3.org/1999/xlink" width="1473.11" height="1932.28"><defs><style>.a{fill:none}.f{clip-path:url(#e)}</style><linearGradient id="a" x1="66.26" y1="1526.97" x2="1987.63" y2="1113.31" gradientUnits="userSpaceOnUse"><stop offset="0" stop-color="#e7fff8"/><stop offset=".59" stop-color="#7be3fc"/><stop offset="1" stop-color="#2ed0ff"/></linearGradient><linearGradient id="b" x1="681.74" y1="926.21" x2="788.74" y2="1034.21" gradientTransform="rotate(4.91 736.071 981.284)" gradientUnits="userSpaceOnUse"><stop offset="0" stop-color="#e7fff8"/><stop offset="1" stop-color="#2ed0ff"/></linearGradient><linearGradient id="c" x1="635.65" y1="882.01" x2="754.65" y2="1005.01" gradientTransform="rotate(4.91 648.873 895.877)" xlink:href="#b"/><linearGradient id="d" x1="351.13" y1="804.07" x2="1884.28" y2="2376.23" xlink:href="#b"/><clipPath id="e"><path class="a" d="M511.21 1172.86c544.57 25 280-387.94 439-525.12 141.7-122.25 477.89-5.56 314 227.83-168.56 240-241.73 377.86-136.15 541.79s-13.89 366.75-508.45 377.87c-371.09 8.34-602.38-147.38-572.36-352.86 18.31-125.57 208.91-281.22 463.96-269.51z"/></clipPath><linearGradient id="f" x1="691.5" y1="1129.04" x2="737.06" y2="2485.07" gradientUnits="userSpaceOnUse"><stop offset="0" stop-color="#a8f3f8"/><stop offset="1" stop-color="#6ab2ff"/></linearGradient><linearGradient id="g" x1="1241.1" y1="876.74" x2="1289.11" y2="1620.81" xlink:href="#f"/><linearGradient id="h" x1="1175.12" y1="964.64" x2="937.12" y2="390.64" xlink:href="#f"/><linearGradient id="i" x1="433.89" y1="1552.79" x2="175.59" y2="929.82" xlink:href="#f"/><linearGradient id="k" x1="312.39" y1="1716.97" x2="1009.39" y2="1716.97" gradientUnits="userSpaceOnUse"><stop offset="0" stop-color="#f05f6f"/><stop offset="1" stop-color="#9f2c69"/></linearGradient><clipPath id="l"><path class="a" d="M312.39 1628.98l598.58-15.59 98.42 156.61-674.49 15.52-22.51-156.54z"/></clipPath><linearGradient id="m" x1="305.5" y1="1613.08" x2="1003.65" y2="1613.08" gradientUnits="userSpaceOnUse"><stop offset="0" stop-color="#fff"/><stop offset="1" stop-color="#fff"/></linearGradient><linearGradient id="n" x1="648.8" y1="2023.21" x2="651.96" y2="1441.31" gradientUnits="userSpaceOnUse"><stop offset="0" stop-color="#f05f6f" stop-opacity="0"/><stop offset="1" stop-color="#6f2c69"/></linearGradient><linearGradient id="o" x1="748.22" y1="1573.02" x2="882.44" y2="1216.2" gradientUnits="userSpaceOnUse"><stop offset="0" stop-color="#f09a6f"/><stop offset="1" stop-color="#d62c69"/></linearGradient><clipPath id="p"><path class="a" d="M759.19 1259.79s43.65 63 36.37 94.56-73.95 93.34-73.95 93.34 48.49 123.66 47.28 122.45c13.34 20.6 67.89 7.27 87.29-34 17-24.24 59.4-103 65.46-157.6 5-44.59-19.4-138.2-19.4-138.2z"/></clipPath><linearGradient id="q" x1="735.02" y1="1347.51" x2="835.24" y2="1383.88" gradientUnits="userSpaceOnUse"><stop offset="0" stop-color="#f05f6f" stop-opacity="0"/><stop offset="1" stop-color="#512c30"/></linearGradient><linearGradient id="r" x1="739.8" y1="1353.12" x2="805.81" y2="1353.12" xlink:href="#m"/><linearGradient id="s" x1="730.74" y1="1341.6" x2="988.6" y2="1506.32" gradientUnits="userSpaceOnUse"><stop offset="0" stop-color="#f05f6f"/><stop offset="1" stop-color="#482c5d"/></linearGradient><linearGradient id="t" x1="804.22" y1="1368.63" x2="918.17" y2="1466.42" xlink:href="#q"/><linearGradient id="u" x1="808.98" y1="1615.23" x2="815.98" y2="1528.9" xlink:href="#m"/><linearGradient id="v" x1="688.83" y1="1447.37" x2="833.18" y2="1539.57" xlink:href="#s"/><linearGradient id="w" x1="496.76" y1="1623.53" x2="726.28" y2="1617.87" gradientUnits="userSpaceOnUse"><stop offset="0" stop-color="#ff826a"/><stop offset="1" stop-color="#ffcbaa"/></linearGradient><linearGradient id="x" x1="706.5" y1="1458.58" x2="481.02" y2="1749.53" gradientUnits="userSpaceOnUse"><stop offset="0" stop-color="#00c9ed"/><stop offset="1" stop-color="#0085bf"/></linearGradient><clipPath id="y"><path class="a" d="M678 1377.38c-33.94-2.42-72.74 21.82-82.43 58.19S621 1487.7 621 1487.7s-8.48 10.91-44.85 30.31-29.1 26.67-21.82 43.64-41.22 26.67-46.07 38.79 21.82 24.25 21.82 24.25l3.75-.35c6.87 2.15 26.83 7 48.38-.86 26.67-9.7 26.67 14.54 67.89 7.27s67.47-15.37 68.89-23.45l8.69-.8s13.34-52.12 27.89-124.86-43.65-101.83-77.57-104.26z"/></clipPath><linearGradient id="z" x1="717.85" y1="1646.52" x2="662.09" y2="1375.57" gradientUnits="userSpaceOnUse"><stop offset="0" stop-color="#0077ed"/><stop offset="1" stop-color="#004def" stop-opacity="0"/></linearGradient><linearGradient id="aa" x1="646.1" y1="1503.06" x2="652.58" y2="1277.11" gradientUnits="userSpaceOnUse"><stop offset="0" stop-color="#00e2d7"/><stop offset="1" stop-color="#fff"/></linearGradient><linearGradient id="ab" x1="758.34" y1="1461.01" x2="553.27" y2="1725.62" xlink:href="#z"/><linearGradient id="ac" x1="285.04" y1="1337.24" x2="420.97" y2="1337.24" gradientUnits="userSpaceOnUse"><stop offset="0" stop-color="#ff826a"/><stop offset=".63" stop-color="#ffb092"/><stop offset="1" stop-color="#ffcbaa"/></linearGradient><clipPath id="ad"><path class="a" d="M389.45 1282.82S362.78 1324 336.11 1341s-53.35 34-50.92 41.22 19.4 17 50.92 0 67.88-17 75.16-33.94 9.7-38.8 9.7-38.8z"/></clipPath><linearGradient id="ae" x1="485.23" y1="1342.08" x2="176.4" y2="1395.72" gradientUnits="userSpaceOnUse"><stop offset="0" stop-color="#945700"/><stop offset="1" stop-color="#ffe5d4" stop-opacity="0"/></linearGradient><linearGradient id="af" x1="576.04" y1="1066.93" x2="721.61" y2="1066.93" xlink:href="#ac"/><clipPath id="ag"><path class="a" d="M690.09 1040.37s-38.79 12.12-55.76 17-60.62 12.12-58.19 21.82 52.33 3.55 69.1 8.48c41.22 12.13 50.92 2.43 55.76-2.42a97.42 97.42 0 0 0 20.61-30.31z"/></clipPath><linearGradient id="ah" x1="742.67" y1="1076.46" x2="606.79" y2="1075.96" gradientUnits="userSpaceOnUse"><stop offset="0" stop-color="#945700"/><stop offset=".13" stop-color="#9a5f0c" stop-opacity=".94"/><stop offset=".33" stop-color="#ab762e" stop-opacity=".78"/><stop offset=".58" stop-color="#c79a65" stop-opacity=".53"/><stop offset=".87" stop-color="#edcdb0" stop-opacity=".17"/><stop offset="1" stop-color="#ffe5d4" stop-opacity="0"/></linearGradient><linearGradient id="ai" x1="431.88" y1="1185.92" x2="873.15" y2="1185.92" gradientUnits="userSpaceOnUse"><stop offset=".27" stop-color="#079fd7"/><stop offset="1" stop-color="#0074bf"/></linearGradient><clipPath id="aj"><path class="a" d="M830.72 1054.91s-281.25 80-303.07 97-138.2 121.22-138.2 130.92 24.24 36.37 31.52 34 133.35-82.44 157.59-87.29S775 1200.39 775 1200.39z"/></clipPath><linearGradient id="ak" x1="286.48" y1="1175.3" x2="733.41" y2="1175.3" xlink:href="#aa"/><linearGradient id="al" x1="685.3" y1="1222.78" x2="402.03" y2="1304.61" gradientUnits="userSpaceOnUse"><stop offset="0" stop-color="#072ed7"/><stop offset="1" stop-color="#006fbf" stop-opacity=".5"/></linearGradient><linearGradient id="am" x1="798.96" y1="1342.47" x2="774.24" y2="1050.18" xlink:href="#al"/><clipPath id="an"><path class="a" d="M621 1487.7s-35.15-15.76-25.45-52.13S644 1375 678 1377.38s92.13 31.52 77.59 104.26-27.89 124.86-27.89 124.86l-197.6 18.19s-26.67-12.12-21.82-24.25 53.34-21.82 46.07-38.79-14.55-24.25 21.82-43.64S621 1487.7 621 1487.7z"/></clipPath><linearGradient id="ao" x1="539.19" y1="1501.34" x2="603.85" y2="1617.32" xlink:href="#aa"/><linearGradient id="ap" x1="743.7" y1="1197.6" x2="1045.96" y2="859.78" gradientUnits="userSpaceOnUse"><stop offset="0" stop-color="#079fd7"/><stop offset="1" stop-color="#0074bf"/></linearGradient><clipPath id="aq"><path class="a" d="M686.46 1041.58l33.94 17 140.6-48.52s-97.16 101-124.87 156.38c-14.55 29.1-1.32 115.17 66.68 115.17 31.52 0 77.58-17 99.4-41.22-7.27-80 76.13-222.55 84.86-254.58 14.55-53.34-38.79-113.95-128.5-58.19s-172.11 113.96-172.11 113.96z"/></clipPath><linearGradient id="ar" x1="900.69" y1="1026.17" x2="767.93" y2="1021.93" gradientUnits="userSpaceOnUse"><stop offset="0" stop-color="#072ed7"/><stop offset="1" stop-color="#0055bf" stop-opacity=".5"/></linearGradient><linearGradient id="as" x1="893.09" y1="1080.51" x2="641.54" y2="1299.68" xlink:href="#aa"/><linearGradient id="at" x1="866.17" y1="1216.6" x2="889.2" y2="885.64" xlink:href="#al"/><linearGradient id="au" x1="853.96" y1="914.59" x2="622.45" y2="1116.3" xlink:href="#aa"/><linearGradient id="av" x1="619.81" y1="1434.62" x2="695.78" y2="1501.29" xlink:href="#w"/><linearGradient id="aw" x1="653.86" y1="1501.76" x2="739.93" y2="1480.85" gradientUnits="userSpaceOnUse"><stop offset="0" stop-color="#f0806f"/><stop offset="1" stop-color="#d32c69"/></linearGradient><linearGradient id="ax" x1="639.87" y1="1483.81" x2="688.36" y2="1475.48" xlink:href="#aw"/><linearGradient id="ay" x1="550.72" y1="1760.92" x2="768.94" y2="1562.1" xlink:href="#w"/><clipPath id="az"><path class="a" d="M741.7 1503.61c-24.71 37.52-19.87 66.67-24.94 147.75 0 0-133.35 24.24-150.32 24.24 0 0-7.27-7.27-21.82-4.84s-7.27 4.84-7.27 4.84-31.52 7.28-29.1 12.13 36.37 17 58.19 2.42c0 0 111.53 14.55 150.32 12.12s46.07-9.69 48.5-33.94c1.72-17.2 13.2-73.45 18-109 5.16-38.22-17.47-66.64-34.42-61.33a13.57 13.57 0 0 0-7.14 5.61z"/></clipPath><linearGradient id="ba" x1="801.42" y1="1734.28" x2="720.71" y2="1534.59" xlink:href="#ae"/><linearGradient id="bb" x1="1136.45" y1="1341.03" x2="1014.56" y2="1586.32" xlink:href="#k"/><linearGradient id="bc" x1="1072.03" y1="1309.01" x2="950.13" y2="1554.3" xlink:href="#k"/><linearGradient id="bd" x1="1077.53" y1="1311.75" x2="955.64" y2="1557.04" xlink:href="#k"/><linearGradient id="be" x1="1098.58" y1="1322.21" x2="976.69" y2="1567.5" xlink:href="#k"/><linearGradient id="bf" x1="1162.48" y1="1353.96" x2="1040.59" y2="1599.25" xlink:href="#k"/><linearGradient id="bg" x1="1077.38" y1="1544.94" x2="969.83" y2="1662.8" xlink:href="#k"/><linearGradient id="bh" x1="437.08" y1="1344.35" x2="1286.5" y2="2228.38" gradientTransform="translate(18.09 -68.27)" xlink:href="#k"/><linearGradient id="bi" x1="692.98" y1="1290.92" x2="1542.39" y2="2174.95" gradientTransform="translate(-1.66 -126.96)" xlink:href="#k"/><linearGradient id="bj" x1="1056.41" y1="1997.79" x2="1905.83" y2="2881.81" gradientTransform="translate(154.4 -232.27)" xlink:href="#k"/><linearGradient id="bk" x1="1252.61" y1="1831.61" x2="2102.02" y2="2715.64" gradientTransform="translate(109.81 -273.75)" xlink:href="#k"/><linearGradient id="bl" x1="934.15" y1="1669.93" x2="1783.56" y2="2553.96" gradientTransform="translate(80.72 -194.31)" xlink:href="#k"/><linearGradient id="bm" x1="212.57" y1="1595.3" x2="1061.98" y2="2479.33" gradientTransform="translate(83.41 -22.51)" xlink:href="#k"/><linearGradient id="bn" x1="643.98" y1="1421.61" x2="1153.26" y2="1951.63" gradientTransform="translate(38.55 -128.97)" xlink:href="#k"/><linearGradient id="bo" x1="478.02" y1="1543.18" x2="987.29" y2="2073.21" gradientTransform="translate(71.79 -93.35)" xlink:href="#k"/><linearGradient id="bp" x1="282" y1="1393.09" x2="791.27" y2="1923.11" gradientTransform="translate(41.99 -43.03)" xlink:href="#k"/><linearGradient id="bq" x1="758.01" y1="1508.27" x2="1267.29" y2="2038.3" gradientTransform="translate(55.73 -158.22)" xlink:href="#k"/><linearGradient id="br" x1="353.58" y1="1673.29" x2="862.86" y2="2203.32" gradientTransform="translate(105.89 -67.73)" xlink:href="#k"/><linearGradient id="bs" x1="926.52" y1="1472.61" x2="1387.78" y2="1952.67" gradientTransform="translate(43.76 -198.25)" xlink:href="#k"/><linearGradient id="bt" x1="2383.09" y1="1364.43" x2="3851.3" y2="2892.47" gradientTransform="matrix(.34 0 0 .38 454.84 385.83)" xlink:href="#k"/><linearGradient id="bu" x1="2298.3" y1="2008.57" x2="3766.52" y2="3536.61" gradientTransform="matrix(.34 0 0 .38 513.9 385.57)" xlink:href="#k"/><linearGradient id="bv" x1="3054.1" y1="1470.4" x2="7068.08" y2="5647.95" gradientTransform="matrix(.34 0 0 .38 434.44 356.94)" xlink:href="#k"/><linearGradient id="bw" x1="574.5" y1="1373.57" x2="4588.49" y2="5551.12" gradientTransform="matrix(.34 0 0 .38 449 553.54)" xlink:href="#k"/><linearGradient id="bx" x1="1060.59" y1="3659.41" x2="2528.8" y2="5187.46" gradientTransform="matrix(.34 0 0 .38 674.85 465.37)" xlink:href="#k"/><linearGradient id="by" x1="2109.11" y1="644.46" x2="3577.32" y2="2172.5" gradientTransform="matrix(.34 0 0 .38 392.29 415.21)" xlink:href="#k"/><linearGradient id="bz" x1="1538.72" y1="951.67" x2="2248.86" y2="1690.75" gradientTransform="matrix(.34 0 0 .38 432.5 449.38)" xlink:href="#k"/><linearGradient id="ca" x1="2105.64" y1="1822.35" x2="2832.61" y2="2578.94" gradientTransform="matrix(.22 0 0 .21 561.32 658.91)" xlink:href="#k"/></defs><path d="M1294.44 796.93s-234 389-109.33 560.63c188.82 259.91-8.22 506-609.07 471s547.65-1063.39 718.4-1031.63z" fill="url(#a)" opacity=".2"/><ellipse cx="735.67" cy="980.64" rx="66.12" ry="50.93" transform="rotate(-4.91 736.17 981.197)" fill="url(#b)"/><ellipse cx="648.52" cy="895.31" rx="33.06" ry="25.47" transform="rotate(-4.91 648.934 895.79)" fill="url(#c)"/><path d="M511.21 1172.86c544.57 25 280-387.94 439-525.12 141.7-122.25 477.89-5.56 314 227.83-168.56 240-241.73 377.86-136.15 541.79s-13.89 366.75-508.45 377.87c-371.09 8.34-602.38-147.38-572.36-352.86 18.31-125.57 208.91-281.22 463.96-269.51z" fill="url(#d)"/><g class="f"><path d="M80.11 1795.55c22-116-19-200.33 830.86-182.16 952.85 20.38 72.19 328.66-89.21 309.8s-781.95 84.87-741.65-127.64z" fill-rule="evenodd" opacity=".43" fill="url(#f)"/><path d="M1228.54 632s-382.95 297.59-146.19 682.05 390.76-695.53 390.76-695.53-194.52-32.66-244.57 13.48z" opacity=".34" fill="url(#g)"/><path d="M748.58 169.58S652 644.86 1082.12 782.22 925.32 0 925.32 0 756.46 102 748.58 169.58z" fill="url(#h)" opacity=".2"/><path d="M39.15 653.41s-184.08 591.45 246 728.82-69.3-898.4-69.3-898.4S47 585.78 39.15 653.41z" fill="url(#i)" opacity=".2"/></g><g class="f"><path fill="url(#k)" d="M312.39 1628.98l598.58-15.59 98.42 156.61-679.28 50.55-17.72-191.57z"/><g clip-path="url(#l)"><path fill="url(#m)" opacity=".2" d="M312.39 1639.3l691.26-20.28-13.78-32.15-684.37 20.66 6.89 31.77z"/></g><ellipse cx="650.56" cy="1699.4" rx="191.19" ry="65.45" fill="url(#n)" opacity=".5"/></g><path d="M759.19 1259.79s43.65 63 36.37 94.56-73.95 93.34-73.95 93.34 48.49 123.66 47.28 122.45c13.34 20.6 67.89 7.27 87.29-34 17-24.24 59.4-103 65.46-157.6 5-44.59-19.4-138.2-19.4-138.2z" fill="url(#o)"/><g clip-path="url(#p)"><path d="M785.86 1274.34s12.13-19.4 24.25 65.46c5.16 36.08 87.29 31.52 87.29 43.64s-77.59 4.85-99.41 12.13-46.07 48.49-50.92 50.91-17-41.22-17-41.22 19.4-130.92 19.4-140.62 36.39 9.7 36.39 9.7z" fill="url(#q)" opacity=".1"/><path d="M773.74 1269.49s43.64 55.76 29.1 92.13-55.77 75.16-55.77 75.16l-7.27-26.67s4.85-143.05 33.94-140.62z" fill="url(#r)" opacity=".2"/><path d="M846.48 1332.53c-9.57-69.7 17-80 17-80l48.49-46.07 77.59 186.69-38.79 114s-99.41 109.1-128.51 111.53-58.19-4.85-58.19-4.85l-42.43-63-20.64-70.4s5.29-11.49 27.11-30.88c0 0 28.66-54 50.48-5.49" fill="url(#s)" opacity=".2"/><path d="M853.75 1567.71s-75.16 48.49-87.28 26.67L735 1465.88s93.59 93.59 143-21.82c21.82-50.92-4.85-179.42-4.85-179.42l26.67-12.12s65.46-84.86 63 60.61-109.07 254.58-109.07 254.58z" opacity=".3" fill="url(#t)"/><path d="M863.45 1526.49s-38.79 58.19-82.43 46.07c-28-7.79-9.7 0-9.7 0l7.27 17 58.19-12.12z" fill="url(#u)" opacity=".2"/><path d="M747.07 1407.69s24.25 31.52 17 80c0 0 24.25 14.55 26.67 41.22s-7.27 55.76-7.27 55.76l-55.77-77.58z" fill="url(#v)" opacity=".2"/></g><path d="M583.41 1617.41l147.9-21.82-4.85 43.65s-109.1 7.27-143.05-4.85c0 0-29.09 4.85-33.94 2.42s4.85-4.85 4.85-4.85-29.1 2.43-29.1-4.85 26.67-16.97 58.19-9.7z" fill="url(#w)"/><path d="M678 1377.38c-33.94-2.42-72.74 21.82-82.43 58.19S621 1487.7 621 1487.7s-8.48 10.91-44.85 30.31-29.1 26.67-21.82 43.64-41.22 26.67-46.07 38.79 21.82 24.25 21.82 24.25l3.75-.35c6.87 2.15 26.83 7 48.38-.86 26.67-9.7 26.67 14.54 67.89 7.27s67.47-15.37 68.89-23.45l8.69-.8s13.34-52.12 27.89-124.86-43.65-101.83-77.57-104.26z" fill="url(#x)"/><g clip-path="url(#y)"><path d="M708.28 1475.58s19.39 29.09-12.12 60.61-79.53-2-72.74 21.82c14.55 50.92-15.76 50.79-33.95 60.62s117.28 62.07 154.41 15.27 73.5-160.75 54.11-197.12-63-133.35-135.78-94.56-82.43 72.74-77.59 97 4.85 48.49 58.19 50.91 65.47-14.55 65.47-14.55z" fill="url(#z)" opacity=".4"/><path d="M616.1 1481.64s-31.48-27.88-12.08-59.4 48.49-53.34 106.68-41.24c0 0-65.46-14.55-89.71-4.85s-41.21 65.46-31.52 82.43-2.42 28.39 37.58 30z" fill="url(#aa)" opacity=".5"/><path d="M616.14 1628.33s67.89-4.85 53.34-41.22c-9.27-23.18 2.43-17 21.83-17s47.61-60.62 49.26-74 46.54-86.64-56.46-117.64c-43.8-13.19-24.32 0-24.32 0s111.53-29.09 118.8 53.34 60.62 181.85 0 215.79-162.45-19.27-162.45-19.27z" fill="url(#ab)" opacity=".4"/></g><path d="M389.45 1282.82S362.78 1324 336.11 1341s-53.35 34-50.92 41.22 19.4 17 50.92 0 67.88-17 75.16-33.94 9.7-38.8 9.7-38.8z" fill="url(#ac)"/><g clip-path="url(#ad)"><path d="M417.33 1310.71c0 2.42-7.27 33.94-29.1 41.21s-36.36 12.13-53.34 24.25-40.81 15.49-40.81 15.49 133 42.7 145.07-5.79-4.85-87.29-4.85-87.29z" fill="url(#ae)" opacity=".5"/></g><path d="M690.09 1040.37s-38.79 12.12-55.76 17-60.62 12.12-58.19 21.82 52.33 3.55 69.1 8.48c41.22 12.13 50.92 2.43 55.76-2.42a97.42 97.42 0 0 0 20.61-30.31z" fill="url(#af)"/><g clip-path="url(#ag)"><path d="M720.4 1051.28s-19.4 29.09-43.64 31.52-41.22-4.85-63 0-25.19 1.48-25.19 1.48 39.74 8.21 51.86 13.06 67.89 7.28 75.16-4.85 9.7-29.09 9.7-29.09z" fill="url(#ah)" opacity=".5"/></g><path d="M830.72 1054.91s-281.25 80-303.07 97-138.2 121.22-138.2 130.92 24.24 36.37 31.52 34 133.35-82.44 157.59-87.29S775 1200.39 775 1200.39z" fill="url(#ai)"/><g clip-path="url(#aj)"><path d="M817 1062.19s-256.6 83.64-278.42 93.34-123.68 104.26-135.8 118.81a259.53 259.53 0 0 1-26.67 27v-29.43s126.08-150.32 169.72-155.17S823 1049.26 823 1049.26z" fill="url(#ak)" opacity=".2"/><path d="M412.48 1316.92s77.72-53.56 99.41-64.4c14.54-7.28-4.85-7.28 24.24-24.25 11.63-6.78 28.69-13.08 46.07-17 89.71-14.55 19.4-21.82 109.11-36.37 94.55-17 87.28-2.43 87.28-2.43L735 1257.36l-314 70.92z" fill="url(#al)" opacity=".2"/><path d="M795.56 1063.4c0 2.42-106.68 87.28-75.16 157.6s133.35-80 133.35-80-5.25-86.08-14.54-89.71-43.65 12.11-43.65 12.11z" fill="url(#am)" opacity=".4"/></g><g clip-path="url(#an)"><path d="M622.7 1493.44s-28.38 23.35-47.77 33-24.25 14.55-17 26.67 12.13 17-9.69 29.1-41 14.29-29 36.24c0 0-17.1 5-19.53-16.85s-26.67-55.76 14.55-70.31 114-46.06 114-46.06z" fill="url(#ao)" opacity=".5"/></g><path d="M686.46 1041.58l33.94 17 140.6-48.52s-97.16 101-124.87 156.38c-14.55 29.1-1.32 115.17 66.68 115.17 31.52 0 77.58-17 99.4-41.22-7.27-80 76.13-222.55 84.86-254.58 14.55-53.34-38.79-113.95-128.5-58.19s-172.11 113.96-172.11 113.96z" fill="url(#ap)"/><g clip-path="url(#aq)"><path d="M849.41 1022.39s45.56-48.7 48-51.13c1.71-1.71-87.29 24.25-94.56 34s9.7 9.7-17 19.4-89.7 38.79-89.7 38.79l31.51 12.12z" fill="url(#ar)" opacity=".2"/><path d="M897.4 971.26s-140.14 162.17-145.48 206.09c-7.37 60.62 31.52 104.26 31.52 104.26s-67.89 7.27-65.35-89.71c.63-24.36 123.57-172.14 123.57-172.14l19.39-9.7z" fill="url(#as)" opacity=".2"/><path d="M730.1 1240.39s53.34 41.22 106.68 19.4c38.35-15.69 60.62-60.62 29.1-97 97-150.33 2.42-70.32 58.19-140.63 33.94-43.64 57.39-109.79 2-116.72s39.19-11.78 56.17.34 53.34 121.23 14.54 177-67.89 177-75.16 181.84-143 46.07-164.87 33.94-26.65-58.17-26.65-58.17z" fill="url(#at)" opacity=".2"/><path d="M938.21 906.21s-43.24 2-84.46 31.11-172.14 111.53-172.14 111.53l4.85-53.34s200.43-108.3 251.75-89.3z" fill="url(#au)" opacity=".2"/></g><path d="M610.08 1459.82s48.81-1.47 77.59-14.55c26.67-12.12 43.64 72.74-14.55 72.74s-63.04-58.19-63.04-58.19z" fill="url(#av)"/><path d="M627.05 1496.19l9.7 21.82 12.13-7.28s-7.28 0-21.83-14.54z" fill="url(#aw)"/><path d="M644 1490.12a1.21 1.21 0 0 1-.19-2.4c.13 0 13.75-2.45 16-13.59a1.21 1.21 0 0 1 2.38.47c-2.56 12.8-17.34 15.4-18 15.51z" fill="url(#ax)"/><path d="M741.7 1503.61c-24.71 37.52-19.87 66.67-24.94 147.75 0 0-133.35 24.24-150.32 24.24 0 0-7.27-7.27-21.82-4.84s-7.27 4.84-7.27 4.84-31.52 7.28-29.1 12.13 36.37 17 58.19 2.42c0 0 105.47 13.34 144.26 10.91 47.31-3 53 3.49 72.55-141.74 5.16-38.22-17.47-66.64-34.42-61.33a13.57 13.57 0 0 0-7.13 5.62z" fill="url(#ay)"/><g clip-path="url(#az)"><path d="M705.85 1653.33s32.41-5 33.95-8c14.55-29.1 12.12-128.51 29.09-130.93s-17-33.94-31.52-19.4-43.65 142.11-31.52 158.33z" fill="url(#ba)"/></g><path d="M1064.8 1431.7c58.51 1.8 55.29-74.14 55.29-74.14-70.28 14.06-60.75 65.83-59 73.09l-16.46 164.57h11c-2.51-35.61 7.1-141.43 9.17-163.52z" fill="url(#bb)"/><path d="M1045.46 1572.82l-17.7-193.18c1.7-7.27 11.23-59-59-73.09 0 0-3.23 75.94 55.28 74.14 2.07 22.08 12.93 156.53 10.47 192.13z" fill="url(#bc)"/><path d="M965.85 1389.91s-2.41 56.58 41.33 54.88c8.48 43.73 10.62 116.83 10.62 116.83h8.4s-10.42-88.21-16.66-117.53c1.22-5.09 8.55-43.73-43.69-54.18z" fill="url(#bd)"/><path d="M962.12 1460.84s-2.42 56.75 41.53 54.87c6.26 43.47 7.93 100.66 7.93 100.66h8.42s-7.76-65.76-13.9-102.59c1.58-8.34 5.18-43.11-43.98-52.94z" fill="url(#be)"/><path d="M1074 1498.17c-6.08 37.13-13.6 100.78-13.6 100.78h8.4s1.67-57.18 7.92-100.64c43.21 1.24 40.83-54.89 40.83-54.89-55.98 11.2-43.55 54.75-43.55 54.75z" fill="url(#bf)"/><path d="M995.71 1561.62h79.63V1612a20.5 20.5 0 0 1-20.5 20.5h-38.64a20.5 20.5 0 0 1-20.5-20.5v-50.42l.01.04z" fill="url(#bg)"/><rect x="314.25" y="1150.87" width="95.38" height="56.36" rx="10.84" transform="rotate(-13.6 362.052 1179.294)" fill="url(#bh)" opacity=".04"/><rect x="550.41" y="1038.75" width="95.38" height="56.36" rx="10.84" transform="rotate(-13.6 598.267 1067.162)" opacity=".08" fill="url(#bi)"/><rect x="1069.9" y="1640.31" width="95.38" height="56.36" rx="10.84" transform="rotate(-13.6 1117.908 1668.842)" fill="url(#bj)" opacity=".04"/><rect x="1221.51" y="1432.66" width="95.38" height="56.36" rx="10.84" transform="rotate(-13.6 1269.534 1461.144)" fill="url(#bk)" opacity=".04"/><rect x="873.95" y="1350.41" width="95.38" height="56.36" rx="10.84" transform="rotate(-13.6 921.897 1378.907)" fill="url(#bl)" opacity=".04"/><rect x="155.06" y="1447.59" width="95.38" height="56.36" rx="10.84" transform="rotate(-13.6 202.819 1476.115)" fill="url(#bm)" opacity=".1"/><rect x="596.43" y="1216.62" width="60.4" height="35.69" rx="10.84" transform="rotate(-13.6 626.81 1234.722)" fill="url(#bn)" opacity=".04"/><rect x="463.71" y="1373.82" width="60.4" height="35.69" rx="10.84" transform="rotate(-13.6 494.085 1391.982)" fill="url(#bo)" opacity=".04"/><rect x="237.89" y="1274.03" width="60.4" height="35.69" rx="10.84" transform="rotate(-13.6 268.175 1292.152)" fill="url(#bp)" opacity=".04"/><rect x="727.65" y="1274.03" width="60.4" height="35.69" rx="10.84" transform="rotate(-13.6 758.052 1292.134)" opacity=".09" fill="url(#bq)"/><rect x="373.37" y="1529.54" width="60.4" height="35.69" rx="10.84" transform="rotate(-13.6 403.725 1547.745)" fill="url(#br)" opacity=".04"/><rect x="891.91" y="1205.28" width="55.47" height="32.78" rx="10.84" transform="rotate(-13.6 919.907 1221.913)" fill="url(#bs)" opacity=".1"/><rect x="1170.81" y="826.36" width="58.12" height="39.39" rx="10.84" transform="rotate(-13.6 1200.18 846.22)" fill="url(#bt)" opacity=".05"/><rect x="1201.44" y="1073.81" width="58.12" height="39.39" rx="10.84" transform="rotate(-13.6 1230.8 1093.723)" fill="url(#bu)" opacity=".05"/><rect x="1237.84" y="696.65" width="145.88" height="98.87" rx="10.84" transform="rotate(-13.6 1311.106 746.239)" fill="url(#bv)" opacity=".05"/><rect x="420.98" y="856" width="145.88" height="98.87" rx="10.84" transform="rotate(-13.6 494.07 905.636)" fill="url(#bw)" opacity=".05"/><rect x="947.39" y="1788.47" width="58.12" height="39.39" rx="10.84" transform="rotate(-13.6 976.729 1808.551)" fill="url(#bx)" opacity=".05"/><rect x="1016.4" y="578.85" width="58.12" height="39.39" rx="10.84" transform="rotate(-13.6 1045.725 598.664)" fill="url(#by)" opacity=".05"/><rect x="906.32" y="773.33" width="31.98" height="21.67" rx="10.84" transform="rotate(-13.6 922.542 784.322)" fill="url(#bz)" opacity=".1"/><rect x="990.1" y="1022.34" width="20.67" height="11.97" rx="5.98" transform="rotate(-13.6 1000.677 1028.518)" fill="url(#ca)" opacity=".1"/></svg>