<svg xmlns="http://www.w3.org/2000/svg" width="119" height="119" viewBox="0 0 119 119"><defs><clipPath id="ohq5a"><path fill="#fff" d="M59.206.213c32.58 0 58.99 26.411 58.99 58.99s-26.41 58.989-58.99 58.989c-32.578 0-58.989-26.41-58.989-58.988 0-32.58 26.41-58.991 58.99-58.991z"/></clipPath></defs><g><g><path fill="#fff" d="M59.206.213c32.58 0 58.99 26.411 58.99 58.99s-26.41 58.989-58.99 58.989c-32.578 0-58.989-26.41-58.989-58.988 0-32.58 26.41-58.991 58.99-58.991z"/><path fill="none" stroke="#f64d01" stroke-linecap="round" stroke-linejoin="round" stroke-miterlimit="50" stroke-width="14" d="M59.206.213c32.58 0 58.99 26.411 58.99 58.99s-26.41 58.989-58.99 58.989c-32.578 0-58.989-26.41-58.989-58.988 0-32.58 26.41-58.991 58.99-58.991z" clip-path="url(&quot;#ohq5a&quot;)"/></g><g><path fill="#f64d01" d="M89 71.697c0 10.643-8.658 19.3-19.301 19.3-10.643 0-19.301-8.657-19.301-19.3a1.191 1.191 0 0 1 2.383 0c0 8.929 6.952 16.262 15.726 16.876V63.954a1.192 1.192 0 1 1 2.383 0v24.62c8.775-.614 15.727-7.948 15.727-16.877 0-9.328-7.59-16.918-16.918-16.918-1.365 0-2.72.164-4.033.485a19.21 19.21 0 0 1-4.717 7.683A19.173 19.173 0 0 1 47.301 68.6a19.174 19.174 0 0 1-13.648-5.653A19.175 19.175 0 0 1 28 49.3a19.175 19.175 0 0 1 5.653-13.647 19.174 19.174 0 0 1 13.648-5.654 19.171 19.171 0 0 1 13.648 5.654A19.174 19.174 0 0 1 66.6 49.299c0 1.151-.1 2.287-.296 3.398 1.116-.199 2.252-.3 3.394-.3 10.642 0 19.3 8.658 19.3 19.3zM64.219 49.299c0-4.52-1.76-8.767-4.955-11.962a16.807 16.807 0 0 0-11.963-4.956c-4.12 0-8.014 1.464-11.09 4.142l20.28 20.281a1.191 1.191 0 1 1-1.685 1.685l-20.28-20.28a16.79 16.79 0 0 0-4.143 11.09c0 4.52 1.76 8.768 4.955 11.964a16.808 16.808 0 0 0 11.963 4.954c4.52 0 8.768-1.76 11.963-4.954a16.807 16.807 0 0 0 4.955-11.964zm6.672 9.889c0 .314-.128.62-.35.842a1.2 1.2 0 0 1-.842.35 1.193 1.193 0 0 1-.842-2.034c.221-.222.527-.35.842-.35.313 0 .62.128.842.35.222.22.35.529.35.842zM43.223 37.619a1.192 1.192 0 0 1-.796-2.246l.042-.015a1.192 1.192 0 0 1 .754 2.261zm14.509 2.934a1.19 1.19 0 0 1-1.685 0 12.418 12.418 0 0 0-9.272-3.612 1.192 1.192 0 0 1-.1-2.38 14.789 14.789 0 0 1 11.057 4.307 1.191 1.191 0 0 1 0 1.685z"/></g></g></svg>