<svg xmlns="http://www.w3.org/2000/svg" width="52" height="36" viewBox="0 0 52 36"><g><g><path d="M.738 30.147V7.983c0-1.364 1.105-2.482 2.458-2.48h10.816V4.056c0-.995.382-1.922 1.082-2.627A3.64 3.64 0 0 1 17.7.335h6.29c2.029 0 3.684 1.666 3.684 3.722v1.444H38.49c1.35 0 2.458 1.118 2.458 2.482v1.654H14.742c-2.267 0-4.74 1.55-5.742 3.608zM16.47 5.502h8.747V4.057c0-.687-.55-1.242-1.228-1.242h-6.29c-.327 0-.636.13-.867.368-.23.234-.362.547-.362.874zm25.451 28.26c-.595 1.222-2.192 2.222-3.543 2.222H3.08c-1.35 0-1.968-1.003-1.369-2.222l9.492-19.421c.593-1.224 2.189-2.226 3.539-2.226H50.04c1.354 0 1.969 1.002 1.371 2.226z"/><path fill="#555" d="M.738 30.147V7.983c0-1.364 1.105-2.482 2.458-2.48h10.816V4.056c0-.995.382-1.922 1.082-2.627A3.64 3.64 0 0 1 17.7.335h6.29c2.029 0 3.684 1.666 3.684 3.722v1.444H38.49c1.35 0 2.458 1.118 2.458 2.482v1.654H14.742c-2.267 0-4.74 1.55-5.742 3.608zM16.47 5.502h8.747V4.057c0-.687-.55-1.242-1.228-1.242h-6.29c-.327 0-.636.13-.867.368-.23.234-.362.547-.362.874zm25.451 28.26c-.595 1.222-2.192 2.222-3.543 2.222H3.08c-1.35 0-1.968-1.003-1.369-2.222l9.492-19.421c.593-1.224 2.189-2.226 3.539-2.226H50.04c1.354 0 1.969 1.002 1.371 2.226z"/></g></g></svg>