<svg xmlns="http://www.w3.org/2000/svg" xmlns:xlink="http://www.w3.org/1999/xlink" width="240.29" height="313.27"><defs><style>.v{opacity:.2;fill:#fff}</style><linearGradient id="a" x1="12.2" y1="247.56" x2="323.71" y2="180.5" gradientUnits="userSpaceOnUse"><stop offset="0" stop-color="#e7fff8"/><stop offset=".59" stop-color="#7be3fc"/><stop offset="1" stop-color="#2ed0ff"/></linearGradient><linearGradient id="b" x1="58.39" y1="130.36" x2="306.95" y2="385.25" gradientUnits="userSpaceOnUse"><stop offset="0" stop-color="#e7fff8"/><stop offset="1" stop-color="#2ed0ff"/></linearGradient><clipPath id="c"><path d="M84.34 190.15c88.29 4 45.39-62.89 71.17-85.14 23-19.82 77.48-.9 50.9 36.94-27.32 38.91-39.19 61.26-22.07 87.84s-2.25 59.46-82.43 61.26c-60.17 1.35-97.66-23.89-92.8-57.21 2.98-20.35 33.89-45.59 75.23-43.69z" fill="none"/></clipPath><linearGradient id="d" x1="113.57" y1="183.05" x2="120.96" y2="402.89" gradientUnits="userSpaceOnUse"><stop offset="0" stop-color="#a8f3f8"/><stop offset="1" stop-color="#6ab2ff"/></linearGradient><linearGradient id="e" x1="202.67" y1="142.14" x2="210.46" y2="262.77" xlink:href="#d"/><linearGradient id="f" x1="181.12" y1="155.13" x2="143.82" y2="65.17" xlink:href="#d"/><linearGradient id="g" x1="71.8" y1="251.75" x2="29.93" y2="150.75" xlink:href="#d"/><linearGradient id="h" x1="86.4" y1="474.84" x2="203.83" y2="597.05" gradientTransform="translate(24.91 -288.45)" gradientUnits="userSpaceOnUse"><stop offset="0" stop-color="#f05f6f"/><stop offset="1" stop-color="#9f2c69"/></linearGradient><linearGradient id="i" x1="1443.02" y1="954.99" x2="1652.24" y2="1172.73" gradientTransform="matrix(.34 0 0 .38 -280.17 -220.9)" xlink:href="#h"/><linearGradient id="j" x1="35.05" y1="75.53" x2="123.24" y2="220.36" gradientUnits="userSpaceOnUse"><stop offset="0" stop-color="#f09a6f"/><stop offset="1" stop-color="#d62c69"/></linearGradient><linearGradient id="k" x1="130.72" y1="136.32" x2="73.78" y2="188.41" gradientUnits="userSpaceOnUse"><stop offset="0" stop-color="#fff"/><stop offset=".78" stop-color="#ffedc2"/><stop offset="1" stop-color="#ffe8b1"/></linearGradient><linearGradient id="l" x1="78.51" y1="156.55" x2="78.97" y2="167.45" xlink:href="#d"/><linearGradient id="m" x1="78.38" y1="144.66" x2="78.38" y2="177.7" xlink:href="#j"/><linearGradient id="n" x1="100.09" y1="99.51" x2="36.36" y2="152.73" xlink:href="#d"/><linearGradient id="o" x1="78.48" y1="112.79" x2="80.23" y2="154.43" gradientUnits="userSpaceOnUse"><stop offset="0" stop-color="#ff826a"/><stop offset="1" stop-color="#ffcbaa"/></linearGradient><linearGradient id="p" x1="35.68" y1="191.86" x2="119" y2="210.54" xlink:href="#j"/><linearGradient id="q" x1="22.86" y1="194.78" x2="167.38" y2="197.36" xlink:href="#o"/><linearGradient id="r" x1="22.74" y1="201.48" x2="167.26" y2="204.06" xlink:href="#o"/><linearGradient id="s" x1="181.17" y1="204.09" x2="26.26" y2="333.44" xlink:href="#j"/><linearGradient id="t" x1="61.95" y1="199.11" x2="187.74" y2="290.25" xlink:href="#j"/></defs><path d="M211.32 129.2s-37.94 63.07-17.72 90.9c30.61 42.13-1.34 82-98.75 76.35s88.79-172.4 116.47-167.25z" fill="url(#a)" opacity=".2"/><path d="M84.34 190.15c88.29 4 45.39-62.89 71.17-85.14 23-19.82 77.48-.9 50.9 36.94-27.32 38.91-39.19 61.26-22.07 87.84s-2.25 59.46-82.43 61.26c-60.17 1.35-97.66-23.89-92.8-57.21 2.98-20.35 33.89-45.59 75.23-43.69z" fill="url(#b)"/><g clip-path="url(#c)"><path d="M14.45 291.1c3.56-18.8-3.08-32.47 134.7-29.53 154.48 3.31 11.71 53.29-14.46 50.23S7.91 325.56 14.45 291.1z" fill-rule="evenodd" opacity=".43" fill="url(#d)"/><path d="M200.64 102.47s-62.09 48.24-23.7 110.58 63.35-112.77 63.35-112.77-31.54-5.28-39.65 2.19z" opacity=".34" fill="url(#e)"/><path d="M122.82 27.49s-35.25 105.57 38 105.57c81.06 0-9.34-133.06-9.34-133.06s-27.38 16.53-28.66 27.49z" fill="url(#f)" opacity=".65"/><path d="M7.81 105.93S-22 201.82 47.7 224.09 36.46 78.44 36.46 78.44 9.08 95 7.81 105.93z" fill="url(#g)" opacity=".65"/></g><rect x="90.69" y="168.41" width="15.46" height="9.14" rx="4.57" transform="rotate(-13.6 98.448 173.003)" opacity=".08" fill="url(#h)"/><rect x="191.28" y="133.97" width="9.42" height="6.39" rx="3.19" transform="rotate(-13.6 196.025 137.178)" opacity=".05" fill="url(#i)"/><path fill="url(#j)" d="M39.11 108.03h80.45v80.45H39.11z"/><path d="M79.81 156.49v-.1l-.48.05-.48-.05v.1c-24.63 2.39-33 32-33 32h67s-8.41-29.61-33.04-32z" fill="url(#k)"/><path d="M66.42 160.47s3.81 7.89 12.91 6.94 11.58-7.67 11.58-7.67-12.02-7.65-24.49.73z" fill="url(#l)"/><path d="M72.63 148.25s-1 8.14-3.35 11.49c0 0 3.83 5.75 10.53 4.79s7.66-5.26 7.66-5.26a13.93 13.93 0 0 1-2.39-10.06z" fill="url(#m)"/><path d="M64 130.53s-5.75-1.91-5.27-11 5.27-9.59 5.27-9.59-3.35-10 4.79-10 23 2.87 27.29-2.88c0 0 5.75 6.71-2.39 12.46 0 0 9.62 7.9 1.46 21.9z" fill="url(#n)"/><path d="M95.13 132.93c0 11.9-11.25 21.31-16 21.55s-15.8-9.41-15.8-21.31c0-5.76.37-16 3.11-19.87-.72.37 6.66 3.26 12.93 2.39 4.39-.61 9-.91 12.93 1.92 3.31 2.39 2.83 9.39 2.83 15.32z" fill="url(#o)"/><path fill="url(#p)" d="M39.11 188.48h80.45v26.34H39.11z"/><path fill="url(#q)" d="M45.81 193.74h52.67v3.83H45.81z"/><path fill="url(#r)" d="M45.81 200.45h52.67v3.83H45.81z"/><path d="M169.86 210.55V204a1.69 1.69 0 0 0-1.69-1.69h-3a1.69 1.69 0 0 0-1.69 1.69v6.6H148.4V204a1.69 1.69 0 0 0-1.69-1.69h-3A1.7 1.7 0 0 0 142 204v6.6h-17.7V204a1.69 1.69 0 0 0-1.69-1.69h-3a1.69 1.69 0 0 0-1.69 1.69v6.6h-15.09V204a1.69 1.69 0 0 0-1.69-1.69h-3a1.69 1.69 0 0 0-1.71 1.69v6.6h-9v64.77h94.52v-64.82z" fill="url(#s)"/><path fill="url(#t)" d="M87.39 228.25h94.53v47.08H87.39z"/><path class="v" d="M103.96 228.25h3.77v47.08h-3.77zm27.11 0h3.77v47.08h-3.77zm24.86 0h3.77v47.08h-3.77z"/><path class="v" d="M181.91 241.43v3.77H87.38v-3.77zm0 17.7v3.77H87.38v-3.77z"/><rect x="92.28" y="214.31" width="86.24" height="10.17" rx="5.08" opacity=".6" fill="#fff"/><path d="M172 202.58h-2.42v-1.51H172v1.51zm-2.78-7.05a69.6 69.6 0 0 0-1.81-10.15l2.35-.6a71.71 71.71 0 0 1 1.87 10.5zm-3.4-15.46a69.42 69.42 0 0 0-4.09-9.46l2.14-1.13a70.19 70.19 0 0 1 4.24 9.8zm-6.87-14.27a68.73 68.73 0 0 0-6.14-8.28l1.84-1.59a71.64 71.64 0 0 1 6.35 8.57zM149 153.46a70.23 70.23 0 0 0-7.86-6.66l1.42-2a71.37 71.37 0 0 1 8.14 6.9zm-12.48-9.75a69.53 69.53 0 0 0-9.17-4.7l.94-2.23a70.71 70.71 0 0 1 9.49 4.86zM68 259.05a87.18 87.18 0 0 1-12.12-3.57l1-2.81a86.83 86.83 0 0 0 11.71 3.45l.55.11-.63 2.94zm-18.68-6.33a87.92 87.92 0 0 1-11.51-6.48l1.66-2.5A86.83 86.83 0 0 0 50.6 250zm-17.27-10.65a88.49 88.49 0 0 1-9.73-8.93l2.18-2a86.33 86.33 0 0 0 9.41 8.62zm-14.4-14.31a87.82 87.82 0 0 1-7.44-10.91l2.6-1.5A84.81 84.81 0 0 0 20 225.89zM6.9 210.55a90.14 90.14 0 0 1-4.74-12.33l2.84-.87a85.3 85.3 0 0 0 4.57 11.91zM.39 191.33c-.14-.63-.27-1.27-.39-1.9l2.94-.57c.12.61.25 1.22.38 1.83z" fill="#fff"/></svg>