<svg xmlns="http://www.w3.org/2000/svg" xmlns:xlink="http://www.w3.org/1999/xlink" width="238.83" height="316.2"><defs><style>.a{fill:none}</style><linearGradient id="a" x1="10.74" y1="247.56" x2="322.25" y2="180.5" gradientUnits="userSpaceOnUse"><stop offset="0" stop-color="#e7fff8"/><stop offset=".59" stop-color="#7be3fc"/><stop offset="1" stop-color="#2ed0ff"/></linearGradient><linearGradient id="b" x1="56.93" y1="130.36" x2="305.49" y2="385.25" gradientUnits="userSpaceOnUse"><stop offset="0" stop-color="#e7fff8"/><stop offset="1" stop-color="#2ed0ff"/></linearGradient><clipPath id="c"><path class="a" d="M82.88 190.15c88.29 4 45.39-62.89 71.17-85.14 23-19.82 77.48-.9 50.9 36.94-27.32 38.91-39.19 61.26-22.07 87.84s-2.25 59.46-82.43 61.26c-60.17 1.35-97.66-23.89-92.8-57.21 2.98-20.35 33.88-45.59 75.23-43.69z"/></clipPath><linearGradient id="d" x1="112.11" y1="183.05" x2="119.5" y2="402.89" gradientUnits="userSpaceOnUse"><stop offset="0" stop-color="#a8f3f8"/><stop offset="1" stop-color="#6ab2ff"/></linearGradient><linearGradient id="e" x1="201.21" y1="142.14" x2="209" y2="262.77" xlink:href="#d"/><linearGradient id="f" x1="179.66" y1="155.13" x2="142.36" y2="65.17" xlink:href="#d"/><linearGradient id="g" x1="70.35" y1="251.75" x2="28.47" y2="150.75" xlink:href="#d"/><linearGradient id="h" x1="98.52" y1="370.05" x2="215.94" y2="492.25" gradientTransform="translate(11.34 -183.66)" gradientUnits="userSpaceOnUse"><stop offset="0" stop-color="#f05f6f"/><stop offset="1" stop-color="#9f2c69"/></linearGradient><linearGradient id="i" x1="597.72" y1="675.28" x2="806.94" y2="893.02" gradientTransform="matrix(.34 0 0 .38 1.81 -113.33)" xlink:href="#h"/><linearGradient id="j" x1="24.86" y1="139.62" x2="146.17" y2="188.06" gradientUnits="userSpaceOnUse"><stop offset="0" stop-color="#f09a6f"/><stop offset="1" stop-color="#d62c69"/></linearGradient><clipPath id="k"><circle class="a" cx="73.18" cy="158.92" r="55.52"/></clipPath><linearGradient id="l" x1="46.63" y1="127.84" x2="182.18" y2="181.96" gradientUnits="userSpaceOnUse"><stop offset="0" stop-color="#ff002a"/><stop offset="1" stop-color="#940035"/></linearGradient><linearGradient id="m" x1="120.42" y1="236.45" x2="221.61" y2="276.85" xlink:href="#j"/><linearGradient id="n" x1="131.66" y1="193.84" x2="217.53" y2="352.61" gradientUnits="userSpaceOnUse"><stop offset="0" stop-color="#fff"/><stop offset="1" stop-color="#ffe8b1"/></linearGradient><linearGradient id="o" x1="7273.19" y1="-3311.38" x2="7301.04" y2="-3300.26" gradientTransform="rotate(-135 4456.129 -56.346)" xlink:href="#j"/><linearGradient id="p" x1="156.71" y1="287.69" x2="168.84" y2="310.11" xlink:href="#n"/></defs><path d="M209.86 129.2s-37.94 63.07-17.72 90.9c30.61 42.13-1.34 82-98.75 76.35s88.79-172.4 116.47-167.25z" fill="url(#a)" opacity=".2"/><path d="M82.88 190.15c88.29 4 45.39-62.89 71.17-85.14 23-19.82 77.48-.9 50.9 36.94-27.32 38.91-39.19 61.26-22.07 87.84s-2.25 59.46-82.43 61.26c-60.17 1.35-97.66-23.89-92.8-57.21 2.98-20.35 33.88-45.59 75.23-43.69z" fill="url(#b)"/><g clip-path="url(#c)"><path d="M13 291.1c3.56-18.8-3.08-32.47 134.7-29.53 154.48 3.31 11.71 53.29-14.46 50.23S6.45 325.56 13 291.1z" fill-rule="evenodd" opacity=".43" fill="url(#d)"/><path d="M199.18 102.47s-62.09 48.24-23.7 110.58 63.35-112.77 63.35-112.77-31.54-5.28-39.65 2.19z" opacity=".34" fill="url(#e)"/><path d="M121.36 27.49s-35.25 105.57 38 105.57C240.42 133.06 150 0 150 0s-27.36 16.53-28.64 27.49z" fill="url(#f)" opacity=".65"/><path d="M6.35 105.93s-29.85 95.89 39.89 118.16S35 78.44 35 78.44 7.62 95 6.35 105.93z" fill="url(#g)" opacity=".65"/></g><rect x="89.24" y="168.41" width="15.46" height="9.14" rx="4.57" transform="rotate(-13.6 97.002 173.001)" opacity=".08" fill="url(#h)"/><rect x="189.82" y="133.97" width="9.42" height="6.39" rx="3.19" transform="rotate(-13.6 194.579 137.176)" opacity=".05" fill="url(#i)"/><circle cx="73.18" cy="158.92" r="55.52" fill="url(#j)"/><g clip-path="url(#k)"><path d="M98.19 190.92a96.07 96.07 0 0 0 5.11-30.5h25.27v-2.9H103.3a94.89 94.89 0 0 0-5.5-31.67 60.79 60.79 0 0 0 15.4-7.85c10.85-7.7 16.8-18 16.8-29s-6-21.33-16.82-29.06-24.9-11.82-40-11.82-29.28 4.2-40 11.82S16.41 78 16.41 89s6 21.33 16.82 29.06a60.68 60.68 0 0 0 16 8 95.53 95.53 0 0 0-5.43 31.48H17.85v2.9h25.92a96.48 96.48 0 0 0 5 30.2 57.85 57.85 0 0 0-15.8 13c-10.68 12.45-16.56 29-16.56 46.58s5.88 34.12 16.59 46.57 25 19.41 40.21 19.41 29.51-6.89 40.25-19.41S130 267.8 130 250.22s-5.88-34.13-16.56-46.58a57.88 57.88 0 0 0-15.25-12.72zm-2.58-1.38a50.05 50.05 0 0 0-21-5.28v-23.84h25.79a93.24 93.24 0 0 1-4.79 29.12zm-21 22.54v-24.92a47.15 47.15 0 0 1 19.92 5.14c-.71 1.78-1.48 3.49-2.31 5.1-5.09 9.95-11.74 15.43-18.73 15.43s-13.6-5.48-18.69-15.43q-1.3-2.55-2.41-5.37a47.08 47.08 0 0 1 19.38-4.87v24.92zm25.74-54.56H74.66v-27.69a76.22 76.22 0 0 0 20.34-3.1 91.87 91.87 0 0 1 5.4 30.79zm-25.69-52.46c6.58.55 12.8 6 17.61 15.37.59 1.16 1.15 2.36 1.68 3.59a72.78 72.78 0 0 1-19.29 2.91zm-2.89 21.87a73.48 73.48 0 0 1-18.72-2.74c.55-1.3 1.13-2.55 1.75-3.76 4.66-9.1 10.63-14.46 17-15.3zM19.3 89c0-21 24.19-38 53.91-38s53.91 17 53.91 38c0 15-12.42 28-30.39 34.17-.59-1.39-1.22-2.73-1.88-4-5.61-11-13.18-17-21.31-17s-15.71 6-21.32 17q-1 2-1.95 4.22C32 117.25 19.3 104.13 19.3 89zM52 126.9a75.77 75.77 0 0 0 19.8 2.93v27.69H46.67A92.06 92.06 0 0 1 52 126.9zm-5.3 33.52h25.1v23.84a49.91 49.91 0 0 0-20.4 5 93.54 93.54 0 0 1-4.73-28.84zM73.21 313.3c-29.72 0-53.91-28.3-53.91-63.08 0-25 12.47-46.61 30.51-56.83q1.11 2.79 2.41 5.33c5.61 11 13.18 17 21.32 17s15.7-6 21.31-17c.82-1.6 1.58-3.28 2.29-5 17.75 10.33 30 31.78 30 56.52-.02 34.76-24.2 63.06-53.93 63.06z" fill="#f7f7f7"/><path d="M51.15 106s69.45 11.27 51.31 100.13c0 0 82.6-25.4 54.28-66.28S81.06 72.45 51.15 106z" fill="url(#l)" opacity=".2"/></g><rect x="129" y="199.1" width="63.46" height="106.88" rx="9.86" fill="url(#m)"/><path d="M143.66 206.14h34.14a8.08 8.08 0 0 1 8.08 8.08V283h-50.3v-68.8a8.08 8.08 0 0 1 8.08-8.06z" fill="url(#n)"/><path d="M154.79 231.48l15.6 9.07a3.85 3.85 0 0 1 .19 6.54L155 257.39a3.84 3.84 0 0 1-6-3.21V234.8a3.84 3.84 0 0 1 5.79-3.32z" fill="url(#o)"/><circle cx="160.73" cy="295.13" r="6.26" fill="url(#p)"/><path d="M171.79 188.42h-2.43v-1.51h2.42c0 .47.01.99.01 1.51zm-2.78-7a69.6 69.6 0 0 0-1.81-10.15l2.35-.6a71.47 71.47 0 0 1 1.87 10.5zm-3.41-15.52a68.66 68.66 0 0 0-4.08-9.46l2.14-1.12a70.53 70.53 0 0 1 4.23 9.79zm-6.86-14.26a68 68 0 0 0-6.14-8.28l1.83-1.59a70.66 70.66 0 0 1 6.36 8.57zm-9.94-12.34a69.59 69.59 0 0 0-7.86-6.67l1.43-1.95a71.26 71.26 0 0 1 8.13 6.9zm-12.47-9.75a69 69 0 0 0-9.18-4.7l.94-2.24a72.08 72.08 0 0 1 9.5 4.87zm-31.16 144.27a72.29 72.29 0 0 1-10.17-.73l.35-2.4a68.83 68.83 0 0 0 9.83.7h.45v2.43zM89.34 272a72.83 72.83 0 0 1-10.2-3.14l.89-2.26a69.18 69.18 0 0 0 9.85 3zm-15.46-5.45a71.92 71.92 0 0 1-9.22-5.37l1.37-2a69.38 69.38 0 0 0 8.91 5.18zm-13.82-8.81a70.71 70.71 0 0 1-7.75-7.33l1.79-1.63a68.69 68.69 0 0 0 7.49 7.08zM48.62 246a70.31 70.31 0 0 1-5.86-8.92l2.12-1.08a68.34 68.34 0 0 0 5.66 8.61zm-8.45-14l-.63-1.43 2.23-.95c.2.46.4.92.61 1.38z" fill="#fff"/></svg>