<svg xmlns="http://www.w3.org/2000/svg" xmlns:xlink="http://www.w3.org/1999/xlink" width="238.83" height="313.27"><defs><linearGradient id="d" x1="10.74" y1="247.56" x2="322.25" y2="180.5" gradientUnits="userSpaceOnUse"><stop offset="0" stop-color="#e7fff8"/><stop offset=".59" stop-color="#7be3fc"/><stop offset="1" stop-color="#2ed0ff"/></linearGradient><linearGradient id="e" x1="56.93" y1="130.36" x2="305.49" y2="385.25" gradientUnits="userSpaceOnUse"><stop offset="0" stop-color="#e7fff8"/><stop offset="1" stop-color="#2ed0ff"/></linearGradient><clipPath id="f"><path d="M82.88 190.15c88.29 4 45.39-62.89 71.17-85.14 23-19.82 77.48-.9 50.9 36.94-27.32 38.91-39.19 61.26-22.07 87.84s-2.25 59.46-82.43 61.26c-60.17 1.35-97.66-23.89-92.8-57.21 2.98-20.35 33.88-45.59 75.23-43.69z" fill="none"/></clipPath><linearGradient id="a" x1="112.11" y1="183.05" x2="119.5" y2="402.89" gradientUnits="userSpaceOnUse"><stop offset="0" stop-color="#a8f3f8"/><stop offset="1" stop-color="#6ab2ff"/></linearGradient><linearGradient id="g" x1="201.21" y1="142.14" x2="209" y2="262.77" xlink:href="#a"/><linearGradient id="h" x1="179.66" y1="155.13" x2="142.36" y2="65.17" xlink:href="#a"/><linearGradient id="i" x1="70.35" y1="251.75" x2="28.47" y2="150.75" xlink:href="#a"/><linearGradient id="b" x1="109.07" y1="254.06" x2="226.49" y2="376.27" gradientTransform="translate(.79 -67.67)" gradientUnits="userSpaceOnUse"><stop offset="0" stop-color="#f05f6f"/><stop offset="1" stop-color="#9f2c69"/></linearGradient><linearGradient id="j" x1="-345.16" y1="395.71" x2="-135.95" y2="613.46" gradientTransform="matrix(.34 0 0 .38 317.97 -5.82)" xlink:href="#b"/><linearGradient id="c" x1="174.18" y1="-730.87" x2="343.87" y2="-663.11" gradientTransform="matrix(.94 -.35 .35 .94 136.56 975.29)" gradientUnits="userSpaceOnUse"><stop offset="0" stop-color="#f09a6f"/><stop offset="1" stop-color="#d62c69"/></linearGradient><linearGradient id="k" x1="197.71" y1="817.01" x2="303.7" y2="817.01" gradientTransform="rotate(13.89 2957.778 -207.575)" xlink:href="#c"/><linearGradient id="l" x1="211.23" y1="823.69" x2="292.14" y2="823.69" gradientTransform="rotate(13.89 2957.778 -207.575)" xlink:href="#c"/><linearGradient id="m" x1="7841.93" y1="2812.61" x2="7832.74" y2="2878.56" gradientTransform="matrix(-.39 .24 -.32 -.53 4098.63 -192.49)" xlink:href="#c"/></defs><path d="M209.86 129.2s-37.94 63.07-17.72 90.9c30.61 42.13-1.34 82-98.75 76.35s88.79-172.4 116.47-167.25z" opacity=".2" fill="url(#d)"/><path d="M82.88 190.15c88.29 4 45.39-62.89 71.17-85.14 23-19.82 77.48-.9 50.9 36.94-27.32 38.91-39.19 61.26-22.07 87.84s-2.25 59.46-82.43 61.26c-60.17 1.35-97.66-23.89-92.8-57.21 2.98-20.35 33.88-45.59 75.23-43.69z" fill="url(#e)"/><g clip-path="url(#f)"><path d="M13 291.1c3.56-18.8-3.08-32.47 134.7-29.53 154.48 3.31 11.71 53.29-14.46 50.23S6.45 325.56 13 291.1z" fill-rule="evenodd" opacity=".43" fill="url(#a)"/><path d="M199.18 102.47s-62.09 48.24-23.7 110.58 63.35-112.77 63.35-112.77-31.54-5.28-39.65 2.19z" opacity=".34" fill="url(#g)"/><path d="M121.36 27.49s-35.25 105.57 38 105.57C240.42 133.06 150 0 150 0s-27.36 16.53-28.64 27.49z" fill="url(#h)" opacity=".65"/><path d="M6.35 105.93s-29.85 95.89 39.89 118.16S35 78.44 35 78.44 7.62 95 6.35 105.93z" fill="url(#i)" opacity=".65"/></g><rect x="89.24" y="168.41" width="15.46" height="9.14" rx="4.57" transform="rotate(-13.6 97.002 173.001)" opacity=".08" fill="url(#b)"/><rect x="189.82" y="133.97" width="9.42" height="6.39" rx="3.19" transform="rotate(-13.6 194.579 137.176)" opacity=".05" fill="url(#j)"/><path d="M139.83 178.47A42.16 42.16 0 0 0 112.39 217C99.92 206.47 85.72 198.53 68 205.1a42.11 42.11 0 1 0 51.49 59.9l10.67 4.9-8.37-22.56-22.56 8.36 9.87 4.53A30.71 30.71 0 1 1 72 215.79c16.59-6.15 29.2 5.85 43.79 19.74s31.17 29.67 53 22l.37-.11.15-.06.15-.05.29-.13a42.1 42.1 0 0 0-29.87-78.72zm25.47 68.21c-14.57 5.31-26.25-4.76-39.39-17.21a6.14 6.14 0 0 0-.23-.84 30.71 30.71 0 1 1 39.62 18.05z" fill="url(#c)"/><path d="M100.43 94.36l2.32-9.36a4.94 4.94 0 0 0-3.6-6l-1.6-.4a5 5 0 0 0-6 3.6l-2.29 9.4a53 53 0 1 0 11.17 2.76z" fill="url(#k)"/><circle cx="83.26" cy="143.9" r="43.34" fill="#fff7f1"/><path d="M89.17 183.8a1.64 1.64 0 0 1 .13-3.21 37.47 37.47 0 0 0 4.29-1 1.65 1.65 0 1 1 .92 3.16 42.16 42.16 0 0 1-4.68 1.06 1.47 1.47 0 0 1-.66-.01zM56 173.5a1.7 1.7 0 0 1-.74-.41 40.21 40.21 0 0 1-3.26-3.53 1.64 1.64 0 0 1 .22-2.31 1.66 1.66 0 0 1 2.32.23 38.11 38.11 0 0 0 3 3.24A1.65 1.65 0 0 1 56 173.5zm63.2-14.29l-.18-.06a1.65 1.65 0 0 1-1-2.12 37.32 37.32 0 0 0 1.3-4.21v-.08a1.64 1.64 0 0 1 2-1.2 1.63 1.63 0 0 1 1.2 2v.08a40.44 40.44 0 0 1-1.42 4.58 1.64 1.64 0 0 1-1.92 1.01zm-74-23a1.64 1.64 0 0 1-1.2-2v-.05a41.63 41.63 0 0 1 1.4-4.53 1.64 1.64 0 0 1 3.08 1.15 37.92 37.92 0 0 0-1.3 4.22 1.65 1.65 0 0 1-2 1.23zm67.66-15.39a1.57 1.57 0 0 1-.87-.55 38.11 38.11 0 0 0-3-3.23 1.64 1.64 0 1 1 2.27-2.37 38.82 38.82 0 0 1 3.26 3.52 1.64 1.64 0 0 1-1.67 2.63zM72 108.22a1.64 1.64 0 0 1-.07-3.17 39.91 39.91 0 0 1 4.71-1.05 1.65 1.65 0 0 1 .54 3.25 37.43 37.43 0 0 0-4.29 1 1.54 1.54 0 0 1-.89-.03z" fill="url(#l)"/><path d="M86.27 143.54l11.54 22.09a1 1 0 0 1-.15 1.32 1 1 0 0 1-1.24-.48l-14.53-20.62c-1.8-2.99 2.58-5.29 4.38-2.31z" fill="url(#m)"/></svg>