<svg fill="#fff" xmlns="http://www.w3.org/2000/svg" width="147.73" height="65.52" viewBox="0 0 147.73 65.52">
  <defs>
    <style>
      .a {
        fill: #b74f46;
      }
    </style>
  </defs>
  <title>Ресурс 3</title>
  <g>
    <path d="M98.28.3h-.42L11,0C2.45,0-2.08,4,.93,8.93L8.25,21l5,0L6.57,10h0v0h0l0-.06h0l0,0H6.43v0h0l0,0H6.31v0h0v0h0v0h0v0h0v0h0l0-.06h0l-.06-.1h0L5.91,9l-.09-.17C4,5.49,7,2.86,12.79,2.89h3.73l9.83,0h0L40.26,3h0l15.94.07h0l15.94.06h0L86,3.18h0l9.84,0h4L98.28.3Zm36.06,35.27-5,0s1,1.63,2.36,4h0l1.09,1.83h0l0,.07h0l0,0h0l0,0h0l0,0h0l.55.93h0l.13.22h0l0,.06h0v0h0l.28.46h0l.38.64h0l.2.33h0v0h0l.18.3h0l0,0v0l0,.07h0l0,0h0v0h0l.17.29h0l.06.11h0l.08.15h0l0,.08h0l.08.13h0l.07.11h0l.29.49h0l.05.09h0l0,0h0l0,0h0l.06.1v0h0l0,0h0v0h0v0l0,0v0h0v0h0v0l.05.09h0v0h0v0h0l0,0v0l.07.11h0l.14.23h0l0,0h0l.05.09h0l0,0h0l0,0h0l0,.05v0h0l0,.08v0h0l0,0h0l0,0h0l0,.05v0h0l0,0h0l0,0h0l0,0h0l0,.06h0l0,0h0v0h0l0,0h0l0,0h0l0,0h0v0l0,.07,0,0h0l.07.12h0l0,0h0v0h0l.06.1v0h0l0,0h0l0,0h0l0,0v0h0l0,.09h0l0,.06h0l0,0h0l.13.23h0v0h0l.12.2h0v0h0l0,0h0l0,.06h0l0,0h0l0,0,0,0h0l0,0h0l.07.11h0l.07.11h0l0,0h0l.05.08h0l.13.22h0l0,.08h0v0h0l.12.2h0l.13.22h0l.06.11h0l.07.1h0l.12.2h0l.47.79h0l.43.72h0l0,0h0l0,0h0l.08.14h0l.31.52h0l1,1.67h0l.53.9h0l.1.17c1.85,3.37-1.22,6-7,5.92l-3.11,0h0l-3.57-.06h-.07l-2.13,0h0l-2.11,0h-1.62l-1.33,0h-2.87l-3,0h0l-1.52,0H105.7l-3.94-.06h-1l-38.26-.59,1.74,2.9,72.46,1.14c8.58.13,13.12-3.89,10.11-9l-12.46-21Z"/>
    <g>
      <path d="M42.29,41.52,29.39,30.65,42.29,19.8l3,3-9.5,7.79,9.5,7.89Z"/>
      <path d="M63.84,41.08l-.11-2.55a12.07,12.07,0,0,1-1.29,1.2,7.41,7.41,0,0,1-1.47,1,8,8,0,0,1-1.75.62,9,9,0,0,1-2.08.22,7.26,7.26,0,0,1-2.62-.44,5.27,5.27,0,0,1-1.89-1.22A5,5,0,0,1,51.47,38a7.32,7.32,0,0,1-.4-2.45A5.55,5.55,0,0,1,51.66,33a5.39,5.39,0,0,1,1.78-2,9.2,9.2,0,0,1,3-1.32,16.42,16.42,0,0,1,4.21-.48h2.54V28A4.07,4.07,0,0,0,63,26.64a2.45,2.45,0,0,0-.68-1A3.18,3.18,0,0,0,61.07,25a6.11,6.11,0,0,0-1.84-.23,15,15,0,0,0-3.4.39,17.42,17.42,0,0,0-3.24,1.1V22.5a18.25,18.25,0,0,1,3.22-.92,19.67,19.67,0,0,1,3.8-.37,14.31,14.31,0,0,1,3.71.42,6.57,6.57,0,0,1,2.56,1.23,4.94,4.94,0,0,1,1.48,2.06,7.9,7.9,0,0,1,.48,2.88V41.08Zm-.67-8.59H60.32a7.31,7.31,0,0,0-2,.23,3.71,3.71,0,0,0-1.34.63,2.56,2.56,0,0,0-.76.93A2.65,2.65,0,0,0,56,35.4a2.18,2.18,0,0,0,.77,1.8,3.2,3.2,0,0,0,2.09.63,3.7,3.7,0,0,0,2-.71,14.54,14.54,0,0,0,2.31-2Z"/>
      <path d="M87.78,25a4.23,4.23,0,0,1,.76,1.41,5.09,5.09,0,0,1,.22,1.5,6.81,6.81,0,0,1-.57,2.87,5.66,5.66,0,0,1-1.58,2.09,7.13,7.13,0,0,1-2.45,1.27,10.81,10.81,0,0,1-3.15.43,8.54,8.54,0,0,1-1.88-.2,4.43,4.43,0,0,1-1.3-.47,3.44,3.44,0,0,0-.55.72,1.67,1.67,0,0,0-.23.89,1.37,1.37,0,0,0,.15.61,1.56,1.56,0,0,0,.45.55,2.41,2.41,0,0,0,.71.39,2.9,2.9,0,0,0,.92.17l4.62.17a11.31,11.31,0,0,1,2.8.4,6.67,6.67,0,0,1,2.15,1,4.55,4.55,0,0,1,1.39,1.58,4.41,4.41,0,0,1,.49,2.11,5.56,5.56,0,0,1-.61,2.57,6,6,0,0,1-1.85,2.1,9.69,9.69,0,0,1-3.07,1.4,15.65,15.65,0,0,1-4.27.52,19.69,19.69,0,0,1-4.05-.37,8.81,8.81,0,0,1-2.77-1,4.38,4.38,0,0,1-1.6-1.6,4.3,4.3,0,0,1-.34-3.28,4.06,4.06,0,0,1,.51-1.1,6.13,6.13,0,0,1,.86-1,11.06,11.06,0,0,1,1.23-1,3.7,3.7,0,0,1-1.43-1.37,3.64,3.64,0,0,1-.49-1.8A4,4,0,0,1,73,35.31a5.13,5.13,0,0,1,.45-1.08,7.06,7.06,0,0,1,.64-1c.24-.32.49-.63.76-.93a6.07,6.07,0,0,1-1.17-1.72,5.83,5.83,0,0,1-.47-2.51,6.86,6.86,0,0,1,.58-2.9A6.08,6.08,0,0,1,75.44,23,7.09,7.09,0,0,1,77.9,21.7,10.25,10.25,0,0,1,81,21.25a14.67,14.67,0,0,1,1.65.09,7.58,7.58,0,0,1,1.45.3h6.73V25Zm-11,18.62a1.76,1.76,0,0,0,1.14,1.67,7.63,7.63,0,0,0,3.2.54,8.79,8.79,0,0,0,2.23-.25A5.17,5.17,0,0,0,84.84,45a2.42,2.42,0,0,0,.82-.94,2.72,2.72,0,0,0,.25-1.11,1.49,1.49,0,0,0-.24-.87,2,2,0,0,0-.67-.6,3.6,3.6,0,0,0-1-.36,8.12,8.12,0,0,0-1.29-.16l-4.11-.08a7,7,0,0,0-.91.73,3.36,3.36,0,0,0-.56.68,2,2,0,0,0-.26.68A3.38,3.38,0,0,0,76.78,43.66Zm.78-15.59a3.36,3.36,0,0,0,.91,2.46,3.46,3.46,0,0,0,2.54.9,3.68,3.68,0,0,0,1.5-.28,3,3,0,0,0,1.06-.77,3.21,3.21,0,0,0,.63-1.11A4.15,4.15,0,0,0,84.41,28,3.14,3.14,0,0,0,81,24.51a3.65,3.65,0,0,0-1.5.28,2.9,2.9,0,0,0-1.06.78,3,3,0,0,0-.64,1.14A4.35,4.35,0,0,0,77.56,28.07Z"/>
      <path d="M98.79,19.8l12.9,10.85L98.79,41.52l-3-3,9.47-7.81-9.47-7.87Z"/>
    </g>
    <circle class="a" cx="15.02" cy="9" r="2.38"/>
    <circle class="a" cx="133.32" cy="57.59" r="2.38"/>
  </g>
</svg>
